PathFileType	4	(X/Y/Z)	./trials/Ivanov/data/jump_js_1.trc
DataRate	CameraRate	NumFrames	NumMarkers	Units	OrigDataRate	OrigDataStartFrame	OrigNumFrames
400	400	5	71	mm	400	46	364
Frame#	Time	r_illiac			r_troch			r_asis			l_illiac			l_troch			l_asis			r_psis			sacrum			l_psis			r_thigh1			r_thigh2			r_thigh3			r_thigh4			rl_knee			rm_knee			r_shank1			r_shank2			r_shank3			r_shank4			r_heel			rl_ankle			rm_ankle			r_metatarsal5			r_metatarsal1			l_thigh1			l_thigh2			l_thigh3			l_thigh4			ll_knee			lm_knee			l_shank1			l_shank2			l_shank3			l_shank4			l_heel			ll_ankle			lm_ankle			l_metatarsal5			l_metatarsal1			back_down			neck			back_right			back_left			head_up			head_front			head_left			head_right			r_shoulder			r_humerus1			r_humerus2			r_humerus3			rl_elbow			rm_elbow			r_radius1			r_radius2			r_radius3			rl_wrist			rm_wrist			r_hand			l_shoulder			l_humerus1			l_humerus2			l_humerus3			ll_elbow			lm_elbow			l_radius1			l_radius2			l_radius3			ll_wrist			lm_wrist			l_hand		
		X1	Y1	Z1	X2	Y2	Z2	X3	Y3	Z3	X4	Y4	Z4	X5	Y5	Z5	X6	Y6	Z6	X7	Y7	Z7	X8	Y8	Z8	X9	Y9	Z9	X10	Y10	Z10	X11	Y11	Z11	X12	Y12	Z12	X13	Y13	Z13	X14	Y14	Z14	X15	Y15	Z15	X16	Y16	Z16	X17	Y17	Z17	X18	Y18	Z18	X19	Y19	Z19	X20	Y20	Z20	X21	Y21	Z21	X22	Y22	Z22	X23	Y23	Z23	X24	Y24	Z24	X25	Y25	Z25	X26	Y26	Z26	X27	Y27	Z27	X28	Y28	Z28	X29	Y29	Z29	X30	Y30	Z30	X31	Y31	Z31	X32	Y32	Z32	X33	Y33	Z33	X34	Y34	Z34	X35	Y35	Z35	X36	Y36	Z36	X37	Y37	Z37	X38	Y38	Z38	X39	Y39	Z39	X40	Y40	Z40	X41	Y41	Z41	X42	Y42	Z42	X43	Y43	Z43	X44	Y44	Z44	X45	Y45	Z45	X46	Y46	Z46	X47	Y47	Z47	X48	Y48	Z48	X49	Y49	Z49	X50	Y50	Z50	X51	Y51	Z51	X52	Y52	Z52	X53	Y53	Z53	X54	Y54	Z54	X55	Y55	Z55	X56	Y56	Z56	X57	Y57	Z57	X58	Y58	Z58	X59	Y59	Z59	X60	Y60	Z60	X61	Y61	Z61	X62	Y62	Z62	X63	Y63	Z63	X64	Y64	Z64	X65	Y65	Z65	X66	Y66	Z66	X67	Y67	Z67	X68	Y68	Z68	X69	Y69	Z69	X70	Y70	Z70	X71	Y71	Z71
46	0.1125	-403.970	735.040	562.223	-466.974	611.497	624.495	-383.956	668.928	533.047	-414.355	735.788	232.090	-457.643	655.072	194.191	-391.918	669.743	274.126	-534.150	778.217	459.440	-505.254	804.484	399.011	-540.643	779.566	346.738	-391.656	525.874	602.963	-357.905	594.848	611.483	-250.221	531.552	626.240	-280.379	470.069	615.593	-103.154	430.508	615.547	-117.790	422.073	480.830	-198.647	349.676	617.267	-137.704	313.890	608.620	-202.816	223.441	601.977	-251.359	258.312	609.844	-405.615	83.347	532.850	-351.078	103.805	576.490	-323.778	98.607	484.094	-197.041	35.446	602.831	-187.324	38.646	509.407	-376.258	549.091	184.267	-338.306	613.053	196.237	-234.507	552.180	171.985	-261.179	499.130	161.817	-132.163	436.464	161.079	-107.424	404.372	287.284	-208.897	328.294	146.109	-144.579	293.631	174.646	-208.541	205.664	183.397	-259.483	232.285	162.433	-418.112	76.369	222.961	-355.213	102.624	185.590	-324.676	104.127	280.944	-207.031	35.724	164.239	-190.960	38.275	240.864	-349.413	867.650	395.794	-40.405	956.889	385.382	-183.890	928.545	483.528	-202.251	924.908	305.849	219.453	1010.946	371.642	235.769	859.023	347.683	141.317	933.512	272.389	176.202	920.691	465.671	29.336	861.751	557.472	-111.904	740.567	650.932	-69.960	843.633	723.819	-146.188	774.119	745.879	-202.628	751.176	776.695	-256.421	840.873	743.896	-279.027	729.998	662.623	-310.142	699.260	786.127	-362.083	686.821	697.525	-450.782	746.231	637.723	-419.595	655.432	661.391	-406.736	699.254	616.551	20.561	879.563	220.748	-117.925	751.482	136.411	-85.644	842.428	47.180	-162.043	774.457	43.487	-232.136	755.226	-9.412	-278.019	850.103	31.039	-282.959	802.944	107.171	-279.088	697.481	45.874	-350.022	728.960	115.266	-436.653	744.653	178.294	-430.826	657.928	138.517	-406.358	702.692	187.745
47	0.1150	-403.976	735.121	562.192	-466.993	611.564	624.466	-383.992	668.967	533.019	-414.349	735.840	232.048	-457.624	655.118	194.147	-391.914	669.804	274.063	-534.150	778.254	459.414	-505.238	804.536	398.981	-540.640	779.639	346.700	-391.690	525.916	602.931	-357.914	594.836	611.457	-250.259	531.563	626.218	-280.391	470.067	615.534	-103.156	430.553	615.515	-117.776	422.099	480.798	-198.692	349.669	617.246	-137.718	313.918	608.600	-202.827	223.430	601.975	-251.376	258.275	609.788	-405.617	83.335	532.832	-351.088	103.818	576.493	-323.783	98.605	484.089	-197.040	35.457	602.824	-187.342	38.657	509.401	-376.284	549.131	184.268	-338.275	613.098	196.220	-234.484	552.189	171.959	-261.203	499.131	161.813	-132.253	436.567	161.170	-107.465	404.384	287.270	-208.911	328.303	146.090	-144.607	293.622	174.657	-208.544	205.660	183.401	-259.500	232.265	162.438	-418.103	76.367	222.950	-355.213	102.619	185.590	-324.710	104.128	280.962	-207.025	35.724	164.229	-190.963	38.281	240.868	-349.388	867.717	395.783	-40.365	956.875	385.334	-183.861	928.591	483.472	-202.219	924.938	305.805	219.449	1010.968	371.619	235.803	859.045	347.680	141.336	933.520	272.361	176.244	920.683	465.636	29.317	861.736	557.461	-111.940	740.568	650.910	-70.018	843.733	723.785	-146.257	774.226	745.841	-202.712	751.248	776.667	-256.470	840.963	743.833	-279.090	730.092	662.568	-310.201	699.332	786.075	-362.185	686.811	697.484	-450.835	746.276	637.657	-419.630	655.459	661.378	-406.713	699.419	616.564	20.580	879.569	220.709	-117.911	751.512	136.350	-85.579	842.458	47.075	-162.046	774.525	43.455	-232.180	755.273	-9.452	-278.003	850.164	30.982	-282.992	803.027	107.128	-279.084	697.544	45.826	-350.003	729.017	115.204	-436.639	744.696	178.252	-430.787	657.988	138.434	-406.372	702.722	187.711
48	0.1175	-403.995	735.203	562.169	-466.992	611.561	624.439	-384.038	668.883	532.883	-414.350	735.908	232.022	-457.556	655.158	194.106	-391.909	669.863	273.996	-534.157	778.331	459.372	-505.236	804.612	398.938	-540.647	779.695	346.664	-391.641	525.966	602.882	-357.978	594.854	611.435	-250.250	531.600	626.193	-280.392	470.107	615.518	-103.170	430.570	615.485	-117.796	422.106	480.782	-198.702	349.706	617.231	-137.725	313.928	608.571	-202.840	223.471	601.950	-251.433	258.236	609.769	-405.627	83.338	532.824	-351.068	103.779	576.482	-323.774	98.614	484.072	-197.057	35.460	602.839	-187.332	38.639	509.393	-376.279	549.166	184.261	-338.285	613.129	196.195	-234.524	552.191	171.966	-261.215	499.150	161.804	-132.285	436.574	161.148	-107.459	404.387	287.274	-208.922	328.296	146.080	-144.656	293.615	174.667	-208.543	205.674	183.394	-259.503	232.273	162.405	-418.115	76.343	222.952	-355.205	102.607	185.592	-324.717	104.122	280.941	-207.030	35.737	164.224	-190.976	38.294	240.853	-349.378	867.759	395.732	-40.328	956.896	385.297	-183.873	928.634	483.413	-202.189	924.965	305.770	219.418	1011.014	371.617	235.828	859.090	347.651	141.354	933.539	272.352	176.238	920.703	465.626	29.301	861.741	557.451	-112.032	740.619	650.913	-70.069	843.813	723.754	-146.323	774.314	745.801	-202.809	751.349	776.633	-256.500	841.053	743.771	-279.143	730.168	662.543	-310.272	699.441	786.049	-362.228	686.904	697.451	-450.882	746.326	637.602	-419.593	655.499	661.316	-406.727	699.495	616.521	20.606	879.551	220.655	-117.974	751.529	136.299	-85.563	842.490	47.036	-162.064	774.585	43.386	-232.207	755.314	-9.500	-277.999	850.228	30.948	-282.981	803.109	107.091	-279.072	697.618	45.770	-349.999	729.112	115.130	-436.660	744.765	178.226	-430.918	658.038	138.424	-406.376	702.782	187.682
49	0.1200	-404.017	735.256	562.108	-467.027	611.677	624.428	-383.958	669.140	533.012	-414.352	735.968	231.971	-457.619	655.264	194.057	-391.904	669.923	273.927	-534.160	778.394	459.333	-505.239	804.692	398.921	-540.647	779.742	346.620	-391.633	525.993	602.854	-357.944	594.882	611.420	-250.264	531.615	626.167	-280.414	470.116	615.473	-103.218	430.576	615.441	-117.820	422.098	480.754	-198.696	349.697	617.178	-137.728	313.910	608.538	-202.832	223.496	601.931	-251.427	258.295	609.758	-405.620	83.329	532.818	-351.090	103.767	576.482	-323.755	98.595	484.073	-197.057	35.456	602.833	-187.347	38.654	509.401	-376.312	549.156	184.248	-338.296	613.169	196.162	-234.499	552.222	171.926	-261.223	499.175	161.786	-132.292	436.612	161.136	-107.531	404.394	287.263	-208.919	328.302	146.085	-144.642	293.611	174.646	-208.569	205.647	183.387	-259.508	232.153	162.482	-418.124	76.341	222.950	-355.231	102.608	185.581	-324.731	104.115	280.945	-207.036	35.724	164.221	-191.000	38.256	240.828	-349.343	867.807	395.685	-40.297	956.874	385.255	-183.857	928.628	483.374	-202.165	924.996	305.722	219.409	1011.034	371.596	235.883	859.125	347.637	141.371	933.556	272.328	176.257	920.731	465.602	29.287	861.719	557.431	-112.067	740.658	650.888	-70.131	843.876	723.735	-146.387	774.398	745.771	-202.836	751.416	776.607	-256.554	841.125	743.711	-279.196	730.244	662.519	-310.349	699.531	786.027	-362.297	687.116	697.329	-450.910	746.468	637.529	-419.649	655.556	661.270	-406.823	699.439	616.414	20.623	879.518	220.594	-117.967	751.567	136.237	-85.552	842.522	46.978	-162.048	774.634	43.352	-232.242	755.364	-9.555	-277.980	850.308	30.911	-282.984	803.189	107.038	-279.055	697.665	45.712	-349.992	729.181	115.080	-436.644	744.823	178.183	-430.925	658.163	138.391	-406.347	702.838	187.631
50	0.1225	-404.011	735.345	562.067	-467.045	611.691	624.391	-383.988	669.050	532.908	-414.386	736.007	231.928	-457.718	655.337	193.993	-391.897	669.981	273.855	-534.184	778.504	459.266	-505.248	804.756	398.883	-540.651	779.828	346.592	-391.670	526.091	602.847	-357.911	594.954	611.384	-250.276	531.644	626.138	-280.458	470.160	615.451	-103.222	430.596	615.432	-117.822	422.148	480.710	-198.731	349.725	617.161	-137.749	313.959	608.526	-202.864	223.491	601.909	-251.404	258.293	609.747	-405.627	83.336	532.837	-351.099	103.833	576.484	-323.781	98.587	484.058	-197.052	35.466	602.837	-187.330	38.676	509.402	-376.318	549.211	184.224	-338.321	613.201	196.120	-234.503	552.240	171.909	-261.238	499.187	161.755	-132.327	436.600	161.146	-107.548	404.405	287.250	-208.915	328.280	146.076	-144.656	293.615	174.670	-208.589	205.660	183.390	-259.538	232.257	162.393	-418.114	76.374	222.942	-355.245	102.609	185.599	-324.680	104.144	280.936	-207.036	35.756	164.220	-190.994	38.326	240.841	-349.352	867.854	395.656	-40.272	956.892	385.224	-183.827	928.646	483.302	-202.140	924.996	305.668	219.398	1011.101	371.601	235.911	859.160	347.622	141.393	933.558	272.316	176.257	920.759	465.592	29.255	861.715	557.431	-112.106	740.719	650.874	-70.171	843.924	723.701	-146.469	774.483	745.761	-202.895	751.524	776.581	-256.598	841.214	743.652	-279.259	730.289	662.499	-310.435	699.655	785.993	-362.393	687.151	697.277	-450.963	746.517	637.469	-419.733	655.629	661.282	-406.846	699.511	616.405	20.666	879.524	220.546	-117.961	751.591	136.169	-85.535	842.558	46.937	-162.073	774.660	43.297	-232.213	755.429	-9.610	-277.975	850.401	30.860	-282.978	803.248	106.986	-279.047	697.748	45.673	-350.008	729.242	115.019	-436.642	744.887	178.142	-430.921	658.217	138.345	-406.355	702.897	187.609
